PathFileType	4	(X/Y/Z)	OpenSim_Sub10_EMGStiffKnee_Accel.trc
DataRate	CameraRate	NumFrames	NumMarkers	Units	OrigDataRate	OrigDataStartFrame	OrigNumFrames
100	100	17	8	m	100	2093	8371
Frame#	Time	torso_imu_offset_imu	pelvis_imu_offset_imu	tibia_r_imu_offset_imu	femur_r_imu_offset_imu	tibia_l_imu_offset_imu	femur_l_imu_offset_imu	toes_r_imu_offset_imu	toes_l_imu_offset_imu
				X1	Y1	Z1	X2	Y2	Z2	X3	Y3	Z3	X4	Y4	Z4	X5	Y5	Z5	X6	Y6	Z6	X7	Y7	Z7	X8		Y8	Z8	

2093	20.92000000	9.41696300	-1.73064000	5.10237000	8.52910400	3.60973600	4.52069600	9.93743100	1.92844900	-0.57610000	9.29233200	0.60630300	-0.79601300	11.16822100	-0.62535700	2.23471800	9.62527000	2.70546800	-0.02515700	5.14626900	0.08300200	8.69056900	7.41298600	2.41627800	13.42735300
2094	20.93000000	9.53074300	-1.64283700	5.08194200	8.50053600	3.55155300	4.41674200	9.94007100	2.01670800	-0.48124600	9.31152700	1.19101100	-0.70124400	11.19595600	-0.74995200	2.15980400	9.56736700	3.09025300	0.04926700	5.06954100	-0.11619300	8.74424100	6.99446100	1.88482400	13.07338300
2095	20.94000000	9.52445200	-1.51294900	5.06460200	8.42533800	3.50071400	4.27638300	9.86575200	2.09790600	-0.42884700	9.24776900	1.60683100	-0.53183900	11.16686400	-0.92371500	2.01092800	9.35601000	3.46891500	0.23966300	4.99609400	-0.24650200	8.59328400	6.95166700	1.44445700	12.84423100
2096	20.95000000	9.54264100	-1.42706200	5.10689800	8.29754600	3.33529600	4.09594800	9.86111500	2.02597200	-0.46561800	9.17355700	1.79991400	-0.39337600	11.08370600	-1.17389800	1.78690800	9.23287900	3.61037600	0.54163100	4.96441200	-0.01498800	8.70461800	7.06562700	1.22127600	12.75593000
2097	20.96000000	9.53270500	-1.35880400	5.13964900	8.29420600	3.24520700	3.95201500	9.90088600	1.93540800	-0.20855700	9.18768500	1.79874700	-0.37855200	10.94750400	-1.49355100	1.70365800	9.06835100	3.65804600	0.67015500	5.02371700	-0.02501800	8.67394000	7.26790100	1.27854800	12.65215500
2098	20.97000000	9.50593100	-1.25439700	5.25847400	8.23712400	3.11867400	3.92675800	10.11631600	1.94015900	-0.36886300	9.20647700	1.78684000	-0.30405900	10.78532100	-1.91655500	1.64167500	9.03434700	3.61926700	0.87707200	4.75630200	-0.19445500	8.82721300	7.27030800	1.06212500	12.45192000
2099	20.98000000	9.52459200	-1.18529900	5.38221500	8.35437600	3.07819500	3.87149900	10.36280700	2.05300400	-0.24933300	9.45378900	1.84851000	-0.34217000	10.49568800	-2.27653700	1.53569800	9.03252900	3.46312500	0.96021400	4.88034900	-0.33278100	8.71714200	7.21903400	0.90658900	12.19732700
2100	20.99000000	9.46523900	-1.17643700	5.52619700	8.42802800	3.17564200	3.84057000	10.40788000	2.26492700	0.22159400	9.62177100	1.90723000	-0.44645400	10.37067000	-2.62441000	1.38663000	9.04117300	3.28069400	1.05056900	4.89036700	-0.10684900	8.77610400	7.37128600	0.91171400	12.09035600
2101	21.00000000	9.48235600	-1.30511300	5.54950800	8.64699800	3.23716700	3.77491700	10.35995200	2.00554200	0.04669100	9.79143300	1.87827300	-0.55100300	10.42746100	-2.97011600	1.29888500	9.12140000	3.05592100	0.98066300	5.20424300	0.23479100	8.74071300	7.37093300	1.06630400	11.76050900
2102	21.01000000	9.47412800	-1.41709700	5.55623000	8.91241500	3.32657500	3.84153900	10.12212700	1.42570400	-0.00676800	9.90642600	1.77635300	-0.56570600	10.36324400	-3.22555300	1.27144600	9.23762000	2.83991900	0.92488700	4.99839300	0.20153100	8.70514400	7.38055900	1.09249600	11.44441800
2103	21.02000000	9.46800000	-1.37975100	5.74774200	9.00746200	3.44294200	3.89285200	10.12233100	0.71904600	0.24896900	9.82226100	1.62348300	-0.58517500	10.05268400	-3.14161500	1.25289500	9.37216200	2.74779200	0.68533100	4.98598200	0.25747400	8.85038500	7.88669000	1.58151400	11.40967800
2104	21.03000000	9.43527600	-1.24354300	5.79788500	9.07954100	3.56474800	3.90986200	10.29373400	0.12823000	0.04883400	9.72416100	1.53459700	-0.48483600	9.81225600	-2.74243700	1.32952600	9.39059500	2.78154600	0.44712700	5.00599600	0.36552800	8.98972600	8.61522000	2.23134200	11.29800300
2105	21.04000000	9.50087400	-1.12737200	5.85909400	9.07681900	3.59177100	3.87229100	10.48710200	-0.01825500	-0.07895700	9.70365700	1.29711400	-0.49606300	9.68527600	-2.08836200	1.50178300	9.25957200	2.86232600	0.24295500	5.12761800	0.02640900	8.70599000	9.00924500	2.29134100	10.89420900
2106	21.05000000	9.46105400	-1.04806600	5.86698700	9.08099600	3.69635100	3.77588700	10.52866300	0.20350700	-0.15292600	9.82175500	1.09119300	-0.59211100	9.72225600	-1.48220800	1.40126400	9.01979400	3.08838600	0.10477400	4.97607300	0.02718300	8.85630200	9.21307900	1.93220700	9.98609600
2107	21.06000000	9.49664700	-0.94046100	5.86093400	9.05172300	3.61341700	3.75067400	10.42398500	0.57937000	-0.08566100	9.96655200	0.80345700	-0.74236900	9.74414400	-0.86829600	1.55251600	8.85835600	3.41183800	0.14677500	4.91245800	0.08682000	8.97762600	9.32158500	1.93376000	9.08153800
2108	21.07000000	9.57693000	-0.95583600	5.94955700	9.02799700	3.57490700	3.65995500	10.42496700	1.09950600	-0.09764800	9.98104400	0.57722800	-0.82344800	9.60652500	-0.35034600	1.89721300	8.65864100	3.86962400	0.24892600	5.16718000	0.00288600	8.88828800	9.52837600	2.08163200	8.11961400
2109	21.08000000	9.54901700	-0.95945000	5.90460800	8.88323900	3.52096400	3.57561700	10.51521700	1.51305500	-0.05378500	9.96754500	0.27498400	-0.81210800	9.36591900	-0.13069200	2.04624700	8.46736100	4.29913900	0.27879500	5.26274900	0.41595700	8.67316100	9.71383700	2.24921000	7.30021900
